<svg width="80" height="80" viewBox="20 16 40 40" fill="none" xmlns="http://www.w3.org/2000/svg">
<g filter="url(#filter0_d_50_274)">
<rect x="20" y="16" width="40" height="40" rx="20" fill="#998B70" shape-rendering="crispEdges"/>
<path d="M43.7646 31.7641C43.8948 31.634 44.1058 31.634 44.236 31.7641C44.3662 31.8943 44.3662 32.1053 44.236 32.2355L36.236 40.2355C36.1058 40.3657 35.8948 40.3657 35.7646 40.2355C35.6344 40.1053 35.6344 39.8943 35.7646 39.7641L43.7646 31.7641Z" fill="#EFE5E1"/>
<path d="M35.7646 31.7641C35.8948 31.634 36.1058 31.634 36.236 31.7641L44.236 39.7641C44.3662 39.8943 44.3662 40.1053 44.236 40.2355C44.1058 40.3657 43.8948 40.3657 43.7646 40.2355L35.7646 32.2355C35.6344 32.1053 35.6344 31.8943 35.7646 31.7641Z" fill="#EFE5E1"/>
</g>
<defs>
<filter id="filter0_d_50_274" x="0" y="0" width="80" height="80" filterUnits="userSpaceOnUse" color-interpolation-filters="sRGB">
<feFlood flood-opacity="0" result="BackgroundImageFix"/>
<feColorMatrix in="SourceAlpha" type="matrix" values="0 0 0 0 0 0 0 0 0 0 0 0 0 0 0 0 0 0 127 0" result="hardAlpha"/>
<feOffset dy="4"/>
<feGaussianBlur stdDeviation="10"/>
<feComposite in2="hardAlpha" operator="out"/>
<feColorMatrix type="matrix" values="0 0 0 0 0 0 0 0 0 0 0 0 0 0 0 0 0 0 0.07 0"/>
<feBlend mode="normal" in2="BackgroundImageFix" result="effect1_dropShadow_50_274"/>
<feBlend mode="normal" in="SourceGraphic" in2="effect1_dropShadow_50_274" result="shape"/>
</filter>
</defs>
</svg>
