<svg xmlns="http://www.w3.org/2000/svg">
    <symbol id="arrow-bottom" viewBox="0 0 24 24" fill="none">
        <path d="M18.7071 8.29289C19.0976 8.68342 19.0976 9.31643 18.7071 9.70696L12.7071 15.707C12.3166 16.0975 11.6836 16.0975 11.293 15.707L5.29305 9.70696C4.90252 9.31643 4.90252 8.68342 5.29305 8.29289C5.68357 7.90237 6.31658 7.90237 6.70711 8.29289L12.0001 13.5859L17.293 8.29289C17.6836 7.90237 18.3166 7.90237 18.7071 8.29289Z"
              fill="var(--arrow-bottom-color, #CAC0B0)"/>
    </symbol>
    <symbol id="arrow-right"  viewBox="0 0 7 13" fill="none">
        <path d="M0.499998 12.5L6.5 6.5L0.5 0.5" stroke="var(--arrow-right-color, #CAC0B0)" stroke-linecap="round" stroke-linejoin="round"/>
    </symbol>

    <symbol id="cancel" viewBox="0 0 18 18" fill="none" >
        <path d="M16.8183 0.202773C17.0886 -0.067591 17.5269 -0.067591 17.7972 0.202773C18.0676 0.473138 18.0676 0.911381 17.7972 1.18175L1.18175 17.7972C0.911381 18.0676 0.473138 18.0676 0.202773 17.7972C-0.067591 17.5269 -0.067591 17.0886 0.202773 16.8183L16.8183 0.202773Z" fill="var(--cancel-color, #D6CCCA)"/>
        <path d="M0.202773 0.202773C0.473138 -0.0675912 0.911381 -0.0675912 1.18175 0.202773L17.7972 16.8183C18.0676 17.0886 18.0676 17.5269 17.7972 17.7972C17.5269 18.0676 17.0886 18.0676 16.8183 17.7972L0.202773 1.18175C-0.0675912 0.911381 -0.0675912 0.473138 0.202773 0.202773Z" fill="var(--cancel-color, #D6CCCA)"/>
    </symbol>

    <symbol id="check"  viewBox="0 0 12 8" fill="none" >
        <path d="M11.3975 0.0976316C11.5354 -0.0325439 11.7588 -0.0325439 11.8966 0.0976316C12.0345 0.227807 12.0345 0.438813 11.8966 0.568989L4.13189 7.90237C3.99405 8.03254 3.77063 8.03254 3.6328 7.90237L0.103375 4.56901C-0.0344582 4.43884 -0.0344582 4.22783 0.103375 4.09766C0.241207 3.96748 0.464625 3.96748 0.602458 4.09766L3.88234 7.19533L11.3975 0.0976316Z" fill="var(--check-color, #E9E4D6)"/>
    </symbol>


</svg>

