<svg xmlns="http://www.w3.org/2000/svg">
    <symbol id="arrow-bottom" viewBox="0 0 24 24" fill="none">
        <path d="M18.7071 8.29289C19.0976 8.68342 19.0976 9.31643 18.7071 9.70696L12.7071 15.707C12.3166 16.0975 11.6836 16.0975 11.293 15.707L5.29305 9.70696C4.90252 9.31643 4.90252 8.68342 5.29305 8.29289C5.68357 7.90237 6.31658 7.90237 6.70711 8.29289L12.0001 13.5859L17.293 8.29289C17.6836 7.90237 18.3166 7.90237 18.7071 8.29289Z"
              fill="var(--arrow-bottom-color, #CAC0B0)"/>
    </symbol>
    <symbol id="arrow-right"  viewBox="0 0 7 13" fill="none">
        <path d="M0.499998 12.5L6.5 6.5L0.5 0.5"  stroke="var(--arrow-right-color, #CAC0B0)" stroke-width="var(--arrow-right-width, 1px)" stroke-linecap="round" stroke-linejoin="round"/>
    </symbol>



    <symbol id="cancel" viewBox="0 0 18 18" fill="none" >
        <path d="M16.8183 0.202773C17.0886 -0.067591 17.5269 -0.067591 17.7972 0.202773C18.0676 0.473138 18.0676 0.911381 17.7972 1.18175L1.18175 17.7972C0.911381 18.0676 0.473138 18.0676 0.202773 17.7972C-0.067591 17.5269 -0.067591 17.0886 0.202773 16.8183L16.8183 0.202773Z" fill="var(--cancel-color, #D6CCCA)"/>
        <path d="M0.202773 0.202773C0.473138 -0.0675912 0.911381 -0.0675912 1.18175 0.202773L17.7972 16.8183C18.0676 17.0886 18.0676 17.5269 17.7972 17.7972C17.5269 18.0676 17.0886 18.0676 16.8183 17.7972L0.202773 1.18175C-0.0675912 0.911381 -0.0675912 0.473138 0.202773 0.202773Z" fill="var(--cancel-color, #D6CCCA)"/>
    </symbol>
    <symbol id="cancel-2"  viewBox="0 0 16 16" fill="none" >
        <path d="M11.7636 3.76462C11.8938 3.63445 12.1048 3.63445 12.235 3.76462C12.3652 3.8948 12.3652 4.1058 12.235 4.23598L4.235 12.236C4.10483 12.3662 3.89382 12.3662 3.76365 12.236C3.63347 12.1058 3.63347 11.8948 3.76365 11.7646L11.7636 3.76462Z" fill="var(--cancel-2-color, #8A8069)"/>
        <path d="M3.76365 3.76462C3.89382 3.63445 4.10483 3.63445 4.235 3.76462L12.235 11.7646C12.3652 11.8948 12.3652 12.1058 12.235 12.236C12.1048 12.3662 11.8938 12.3662 11.7636 12.236L3.76365 4.23598C3.63347 4.1058 3.63347 3.8948 3.76365 3.76462Z" fill="var(--cancel-2-color, #8A8069)"/>
    </symbol>


    <symbol id="check"  viewBox="0 0 12 8" fill="none" >
        <path d="M11.3975 0.0976316C11.5354 -0.0325439 11.7588 -0.0325439 11.8966 0.0976316C12.0345 0.227807 12.0345 0.438813 11.8966 0.568989L4.13189 7.90237C3.99405 8.03254 3.77063 8.03254 3.6328 7.90237L0.103375 4.56901C-0.0344582 4.43884 -0.0344582 4.22783 0.103375 4.09766C0.241207 3.96748 0.464625 3.96748 0.602458 4.09766L3.88234 7.19533L11.3975 0.0976316Z" fill="var(--check-color, #E9E4D6)"/>
    </symbol>

    <symbol id="settings"  viewBox="0 0 24 24" fill="none" >
        <path d="M14.1429 12C14.1429 10.8165 13.1835 9.85714 12 9.85714C10.8165 9.85714 9.85714 10.8165 9.85714 12C9.85714 13.1835 10.8165 14.1429 12 14.1429C13.1835 14.1429 14.1429 13.1835 14.1429 12ZM15 12C15 13.6569 13.6569 15 12 15C10.3431 15 9 13.6569 9 12C9 10.3431 10.3431 9 12 9C13.6569 9 15 10.3431 15 12Z" fill="#8A8069"/>
        <path d="M13.1739 4.95652C13.1739 4.64518 13.0501 4.34668 12.83 4.12653C12.6098 3.90638 12.3113 3.78261 12 3.78261C11.6887 3.78261 11.3902 3.90638 11.17 4.12653C10.9499 4.34668 10.8261 4.64518 10.8261 4.95652V5.09103C10.8248 5.41918 10.7276 5.73991 10.5464 6.0135C10.3652 6.28703 10.1081 6.50176 9.80656 6.63103C9.76255 6.64989 9.71521 6.65896 9.66746 6.66084C9.38123 6.77003 9.07043 6.80052 8.76792 6.74567C8.43713 6.68568 8.13163 6.52754 7.8913 6.29246L7.84163 6.24278C7.7326 6.13364 7.60277 6.04659 7.46026 5.98752C7.31781 5.9285 7.16506 5.8981 7.01087 5.8981C6.85668 5.8981 6.70393 5.9285 6.56148 5.98752C6.45462 6.03181 6.35478 6.09168 6.26571 6.16483L6.18011 6.24278C6.07097 6.35181 5.98392 6.48164 5.92485 6.62415C5.86585 6.76657 5.83543 6.91938 5.83543 7.07354C5.83544 7.22772 5.86583 7.38049 5.92485 7.52293C5.98392 7.66544 6.07097 7.79527 6.18011 7.9043L6.2275 7.95092L6.23055 7.95397H6.22979C6.46488 8.19431 6.62302 8.49978 6.683 8.83059C6.7415 9.1532 6.70302 9.48513 6.57524 9.78668C6.4587 10.1036 6.24991 10.3782 5.97529 10.5746C5.70068 10.771 5.37353 10.8809 5.03601 10.8888H4.95652C4.64518 10.8888 4.34668 11.0125 4.12653 11.2327C3.9064 11.4528 3.78261 11.7513 3.78261 12.0627C3.78262 12.374 3.90639 12.6725 4.12653 12.8927C4.34668 13.1128 4.6452 13.2366 4.95652 13.2366H5.09103C5.41918 13.2379 5.73991 13.3351 6.0135 13.5163C6.28589 13.6967 6.50006 13.9524 6.6295 14.2523L6.67536 14.3692C6.77327 14.6452 6.79816 14.9426 6.74567 15.2321C6.68568 15.5629 6.52754 15.8684 6.29246 16.1087L6.24278 16.1584C6.13364 16.2674 6.04659 16.3972 5.98752 16.5397C5.9285 16.6822 5.8981 16.8349 5.8981 16.9891C5.8981 17.1433 5.9285 17.2961 5.98752 17.4385C6.04659 17.581 6.13364 17.7109 6.24278 17.8199L6.32838 17.8978C6.41744 17.971 6.51732 18.0309 6.62415 18.0752C6.76657 18.1341 6.91938 18.1646 7.07354 18.1646C7.22771 18.1646 7.38049 18.1342 7.52293 18.0752C7.66544 18.0161 7.79527 17.929 7.9043 17.8199L7.95092 17.7725L7.95397 17.7694C8.1943 17.5344 8.49982 17.377 8.83059 17.317C9.16139 17.257 9.5028 17.2974 9.81038 17.4332H9.80961C10.1169 17.5512 10.3829 17.7566 10.5746 18.0247C10.771 18.2993 10.8809 18.6265 10.8888 18.964V19.0435C10.8888 19.3548 11.0125 19.6533 11.2327 19.8735C11.4528 20.0936 11.7513 20.2174 12.0627 20.2174C12.374 20.2174 12.6725 20.0936 12.8927 19.8735C13.1128 19.6533 13.2366 19.3548 13.2366 19.0435V18.909C13.2379 18.5808 13.3351 18.2601 13.5163 17.9865C13.6967 17.7141 13.9524 17.4999 14.2523 17.3705C14.5599 17.2348 14.9013 17.1943 15.2321 17.2543C15.5215 17.3068 15.7915 17.4342 16.0155 17.6227L16.1087 17.7075L16.1584 17.7572C16.2674 17.8664 16.3972 17.9534 16.5397 18.0125C16.6822 18.0715 16.8349 18.1019 16.9891 18.1019C17.1433 18.1019 17.2961 18.0715 17.4385 18.0125C17.581 17.9534 17.7109 17.8664 17.8199 17.7572L17.8978 17.6716C17.971 17.5826 18.0309 17.4827 18.0752 17.3758C18.1341 17.2334 18.1646 17.0806 18.1646 16.9265C18.1646 16.7723 18.1342 16.6195 18.0752 16.4771C18.0309 16.3702 17.971 16.2704 17.8978 16.1813L17.8199 16.0957L17.7725 16.0491L17.7694 16.046V16.0453C17.5346 15.805 17.3769 15.5 17.317 15.1694C17.257 14.8386 17.2974 14.4972 17.4332 14.1896C17.5626 13.8897 17.7768 13.634 18.0492 13.4536C18.3228 13.2725 18.6435 13.1752 18.9716 13.1739H19.0435C19.3548 13.1739 19.6533 13.0501 19.8735 12.83C20.0936 12.6098 20.2174 12.3113 20.2174 12C20.2174 11.6887 20.0936 11.3902 19.8735 11.17C19.6533 10.9499 19.3548 10.8261 19.0435 10.8261H18.909C18.5808 10.8248 18.2601 10.7276 17.9865 10.5464C17.713 10.3652 17.4982 10.1081 17.369 9.80656C17.3501 9.76254 17.3403 9.71522 17.3384 9.66746C17.2293 9.3813 17.1995 9.07034 17.2543 8.76792C17.3143 8.43713 17.4725 8.13163 17.7075 7.8913L17.7572 7.84163L17.8352 7.75603C17.9083 7.66696 17.9682 7.56712 18.0125 7.46026C18.0715 7.31781 18.1019 7.16505 18.1019 7.01087C18.1019 6.85668 18.0715 6.70393 18.0125 6.56148C17.9682 6.45462 17.9083 6.35478 17.8352 6.26571L17.7572 6.18011C17.6482 6.07097 17.5184 5.98392 17.3758 5.92485C17.2334 5.86585 17.0806 5.83543 16.9265 5.83543C16.7723 5.83544 16.6195 5.86583 16.4771 5.92485C16.3702 5.96915 16.2704 6.02901 16.1813 6.10216L16.0957 6.18011L16.0491 6.2275L16.046 6.23055L16.0453 6.22979C15.8049 6.46483 15.5002 6.62303 15.1694 6.683C14.8386 6.74298 14.4972 6.70258 14.1896 6.56683V6.56607C13.8898 6.43661 13.634 6.22314 13.4536 5.95083C13.2725 5.67724 13.1752 5.3565 13.1739 5.02836V4.95652ZM13.9565 5.02531L13.9665 5.156C13.9859 5.28512 14.0336 5.40928 14.1063 5.51902C14.179 5.62873 14.2747 5.72053 14.386 5.78881L14.5022 5.84918L14.506 5.85071C14.6704 5.92324 14.8527 5.94465 15.0296 5.91262C15.2065 5.88054 15.3703 5.79609 15.4988 5.67035L15.5424 5.62678L15.6845 5.49762C15.833 5.37564 15.9993 5.27648 16.1775 5.20262C16.415 5.10417 16.6694 5.05283 16.9265 5.05282C17.1835 5.05282 17.438 5.10419 17.6754 5.20262C17.9129 5.30104 18.1289 5.44496 18.3105 5.62678L18.4397 5.76894C18.5617 5.91744 18.6616 6.08371 18.7355 6.26189C18.8338 6.49931 18.8845 6.75387 18.8845 7.01087C18.8845 7.26787 18.8338 7.52243 18.7355 7.75985C18.6616 7.93803 18.5617 8.1043 18.4397 8.2528L18.3105 8.39496L18.267 8.43852L18.1806 8.5417C18.1024 8.65014 18.0488 8.77508 18.0247 8.90778C17.9927 9.08459 18.0141 9.26689 18.0866 9.4313C18.1035 9.46952 18.1116 9.51063 18.1157 9.55205C18.1859 9.68962 18.289 9.80796 18.4183 9.89368C18.5646 9.9906 18.7365 10.0428 18.912 10.0435H19.0435C19.5624 10.0435 20.0599 10.2498 20.4268 10.6167C20.7937 10.9836 21 11.4811 21 12C21 12.5189 20.7937 13.0164 20.4268 13.3833C20.0599 13.7502 19.5624 13.9565 19.0435 13.9565H18.9747L18.844 13.9665C18.7149 13.9859 18.5907 14.0336 18.481 14.1063C18.3348 14.2032 18.2199 14.341 18.1508 14.5022L18.1493 14.506C18.0768 14.6704 18.0554 14.8527 18.0874 15.0296C18.1195 15.2065 18.2039 15.3703 18.3297 15.4988L18.3732 15.5424L18.5024 15.6845C18.6244 15.833 18.7235 15.9993 18.7974 16.1775C18.8958 16.415 18.9472 16.6694 18.9472 16.9265C18.9472 17.1835 18.8958 17.438 18.7974 17.6754C18.7235 17.8536 18.6243 18.0199 18.5024 18.1684L18.3732 18.3105C18.1915 18.4924 17.9756 18.637 17.7381 18.7355C17.5007 18.8338 17.2461 18.8845 16.9891 18.8845C16.7321 18.8845 16.4776 18.8338 16.2401 18.7355C16.062 18.6616 15.8957 18.5617 15.7472 18.4397L15.605 18.3105L15.5615 18.267L15.4583 18.1806C15.3499 18.1024 15.2249 18.0488 15.0922 18.0247C14.9154 17.9927 14.7331 18.0141 14.5687 18.0866L14.5649 18.0881C14.4037 18.1572 14.2659 18.2721 14.169 18.4183C14.0721 18.5646 14.0199 18.7365 14.0192 18.912V19.0435C14.0192 19.5624 13.8129 20.0599 13.446 20.4268C13.0791 20.7937 12.5816 21 12.0627 21C11.5438 21 11.0463 20.7937 10.6793 20.4268C10.3124 20.0599 10.1061 19.5624 10.1061 19.0435V18.9823L10.0932 18.8478C10.07 18.7156 10.0175 18.5895 9.93877 18.4794C9.83371 18.3326 9.68639 18.2208 9.5169 18.1585C9.50923 18.1556 9.50144 18.1526 9.49397 18.1493C9.32955 18.0768 9.14727 18.0554 8.97045 18.0874C8.79351 18.1195 8.62974 18.2039 8.50119 18.3297L8.45763 18.3732C8.27594 18.5551 8.05998 18.6989 7.82252 18.7974C7.58503 18.8958 7.33062 18.9472 7.07354 18.9472C6.81647 18.9472 6.56204 18.8958 6.32456 18.7974C6.14641 18.7235 5.9801 18.6243 5.83161 18.5024L5.68945 18.3732C5.5076 18.1915 5.36296 17.9756 5.26452 17.7381C5.16615 17.5007 5.11549 17.2461 5.11549 16.9891C5.11549 16.7321 5.16615 16.4776 5.26452 16.2401C5.36296 16.0027 5.5076 15.7867 5.68945 15.605L5.73302 15.5615C5.85876 15.4329 5.94321 15.2692 5.97529 15.0922C6.00732 14.9154 5.98589 14.7331 5.91338 14.5687L5.91185 14.5649C5.84277 14.4037 5.72787 14.2659 5.58169 14.169C5.47196 14.0963 5.34777 14.0486 5.21867 14.0291L5.08798 14.0192H4.95652C4.43763 14.0192 3.94012 13.8129 3.5732 13.446C3.2063 13.0791 3.00002 12.5815 3 12.0627C3 11.5438 3.2063 11.0463 3.5732 10.6793C3.94012 10.3124 4.43762 10.1061 4.95652 10.1061H5.01766C5.19821 10.1019 5.37366 10.0438 5.52055 9.93877C5.66744 9.83371 5.77921 9.68639 5.84154 9.5169L5.85071 9.49397C5.92324 9.32955 5.94465 9.14727 5.91262 8.97045C5.88054 8.79351 5.79609 8.62974 5.67035 8.50119L5.62678 8.45763C5.44493 8.27594 5.30105 8.05998 5.20262 7.82252C5.10417 7.58503 5.05283 7.33062 5.05282 7.07354C5.05282 6.81647 5.10419 6.56204 5.20262 6.32456C5.30104 6.08712 5.44496 5.87112 5.62678 5.68945L5.76894 5.56029C5.91744 5.43831 6.08371 5.33838 6.26189 5.26452C6.49931 5.16615 6.75387 5.11549 7.01087 5.11549C7.26787 5.11549 7.52243 5.16615 7.75985 5.26452C7.99731 5.36296 8.21327 5.5076 8.39496 5.68945L8.43852 5.73302C8.56707 5.85876 8.73084 5.94321 8.90778 5.97529C9.08459 6.00732 9.26689 5.98589 9.4313 5.91338L9.50849 5.88816C9.52279 5.88514 9.53749 5.88499 9.55205 5.88358C9.68949 5.81331 9.80803 5.71091 9.89368 5.58169C9.99032 5.43577 10.0425 5.2645 10.0435 5.0895V4.95652C10.0435 4.43762 10.2498 3.94012 10.6167 3.5732C10.9836 3.20628 11.4811 3 12 3C12.5189 3 13.0164 3.20628 13.3833 3.5732C13.7502 3.94012 13.9565 4.43762 13.9565 4.95652V5.02531Z" fill="#8A8069"/>
    </symbol>

    <symbol id="arrow-left"  viewBox="0 0 19 8" fill="none">
        <path d="M0.146446 3.32857C-0.0488148 3.52384 -0.0488148 3.84042 0.146446 4.03568L3.32843 7.21766C3.52369 7.41292 3.84027 7.41292 4.03553 7.21766C4.2308 7.0224 4.2308 6.70582 4.03553 6.51055L1.20711 3.68213L4.03553 0.853701C4.2308 0.658438 4.2308 0.341856 4.03553 0.146594C3.84027 -0.0486685 3.52369 -0.0486685 3.32843 0.146594L0.146446 3.32857ZM18.5 3.68213L18.5 3.18213L0.5 3.18213L0.5 3.68213L0.5 4.18213L18.5 4.18213L18.5 3.68213Z" fill="var(--arrow-left-color, #988A6F)"/>
    </symbol>

    <symbol id="plus"  viewBox="0 0 24 24" >
        <path d="M12 5V19" stroke="var(--plus-color, #897F69)" stroke-linecap="round" stroke-linejoin="round"/>
        <path d="M5 12H19" stroke="var(--plus-color, #897F69)" stroke-linecap="round" stroke-linejoin="round"/>
    </symbol>

    <symbol id="download"  viewBox="0 0 24 24" fill="none" >
        <path d="M21 15V19C21 19.5304 20.7893 20.0391 20.4142 20.4142C20.0391 20.7893 19.5304 21 19 21H5C4.46957 21 3.96086 20.7893 3.58579 20.4142C3.21071 20.0391 3 19.5304 3 19V15" stroke="var(--download-icon, #988A6F)" stroke-linecap="round" stroke-linejoin="round"/>
        <path d="M7 10L12 15L17 10" stroke="var(--download-icon, #988A6F)" stroke-linecap="round" stroke-linejoin="round"/>
        <path d="M12 15V3" stroke="var(--download-icon, #988A6F)" stroke-linecap="round" stroke-linejoin="round"/>
    </symbol>



    <symbol id="help-circle" viewBox="0 0 24 24" fill="none" >
        <path d="M12 22C17.5228 22 22 17.5228 22 12C22 6.47715 17.5228 2 12 2C6.47715 2 2 6.47715 2 12C2 17.5228 6.47715 22 12 22Z" stroke="var(--help-circle-color, #988A6F)" stroke-linecap="round" stroke-linejoin="round"/>
        <path d="M9.09375 9.00008C9.32885 8.33175 9.7929 7.76819 10.4037 7.40921C11.0145 7.05024 11.7326 6.91902 12.4309 7.03879C13.1292 7.15857 13.7626 7.52161 14.2188 8.06361C14.6751 8.60561 14.9248 9.2916 14.9237 10.0001C14.9237 12.0001 11.9237 13.0001 11.9237 13.0001" stroke="var(--help-circle-color, #988A6F)" stroke-linecap="round" stroke-linejoin="round"/>
        <path d="M12 17H12.01" stroke="#988A6F" stroke-linecap="round" stroke-linejoin="round"/>
    </symbol>

    <symbol id="edit" viewBox="0 0 24 24" fill="none">
        <path d="M12 20H21" stroke="var(--edit-color, #CAC0B0)" stroke-linecap="round" stroke-linejoin="round"/>
        <path d="M16.5 3.49998C16.8978 3.10216 17.4374 2.87866 18 2.87866C18.2786 2.87866 18.5544 2.93353 18.8118 3.04014C19.0692 3.14674 19.303 3.303 19.5 3.49998C19.697 3.69697 19.8532 3.93082 19.9598 4.18819C20.0665 4.44556 20.1213 4.72141 20.1213 4.99998C20.1213 5.27856 20.0665 5.55441 19.9598 5.81178C19.8532 6.06915 19.697 6.303 19.5 6.49998L7 19L3 20L4 16L16.5 3.49998Z" stroke="var(--edit-color, #CAC0B0)" stroke-linecap="round" stroke-linejoin="round"/>
    </symbol>


</svg>


