<svg width="24" height="24" viewBox="0 0 24 24" fill="none" xmlns="http://www.w3.org/2000/svg">
<path d="M15.7636 7.76413C15.8938 7.63396 16.1048 7.63396 16.235 7.76413C16.3652 7.89431 16.3652 8.10531 16.235 8.23549L8.235 16.2355C8.10483 16.3657 7.89382 16.3657 7.76365 16.2355C7.63347 16.1053 7.63347 15.8943 7.76365 15.7641L15.7636 7.76413Z" fill="#8A8069"/>
<path d="M7.76365 7.76413C7.89382 7.63396 8.10483 7.63396 8.235 7.76413L16.235 15.7641C16.3652 15.8943 16.3652 16.1053 16.235 16.2355C16.1048 16.3657 15.8938 16.3657 15.7636 16.2355L7.76365 8.23549C7.63347 8.10531 7.63347 7.89431 7.76365 7.76413Z" fill="#8A8069"/>
</svg>
